<svg xmlns="http://www.w3.org/2000/svg" viewBox="0 0 32 32" width="32" height="32">
  <!-- MakerSquare M logo mark -->
  <!-- Left leg of M -->
  <path d="M4 8 L4 26 L10 26 L10 14 L4 8Z" fill="#403DD8"/>
  <path d="M4 8 L10 8 L10 14 L4 8Z" fill="#6366F1"/>

  <!-- Middle peak of M -->
  <path d="M10 14 L16 8 L22 14 L16 20 L10 14Z" fill="#81AAFB"/>

  <!-- Right leg of M -->
  <path d="M22 14 L22 26 L28 26 L28 8 L22 14Z" fill="#403DD8"/>
  <path d="M22 8 L28 8 L22 14Z" fill="#6366F1"/>

  <!-- 3D depth effects -->
  <path d="M10 14 L10 26 L16 26 L16 20 L10 14Z" fill="#C7D2FE"/>
  <path d="M16 20 L16 26 L22 26 L22 14 L16 20Z" fill="#A5B4FC"/>
</svg>
